<svg xmlns="http://www.w3.org/2000/svg" fill="none" viewBox="1.25 1.53 21.5 21.5">
<path d="M15 23.0273H9C3.57 23.0273 1.25 20.7073 1.25 15.2773V9.27734C1.25 3.84734 3.57 1.52734 9 1.52734H15C20.43 1.52734 22.75 3.84734 22.75 9.27734V15.2773C22.75 20.7073 20.43 23.0273 15 23.0273ZM9 3.02734C4.39 3.02734 2.75 4.66734 2.75 9.27734V15.2773C2.75 19.8873 4.39 21.5273 9 21.5273H15C19.61 21.5273 21.25 19.8873 21.25 15.2773V9.27734C21.25 4.66734 19.61 3.02734 15 3.02734H9Z" fill="white"/>
<path d="M11.9995 15.5375C11.8095 15.5375 11.6195 15.4675 11.4695 15.3175L8.46945 12.3175C8.17945 12.0275 8.17945 11.5475 8.46945 11.2575C8.75945 10.9675 9.23945 10.9675 9.52945 11.2575L11.9995 13.7275L14.4695 11.2575C14.7595 10.9675 15.2395 10.9675 15.5295 11.2575C15.8195 11.5475 15.8195 12.0275 15.5295 12.3175L12.5295 15.3175C12.3795 15.4675 12.1895 15.5375 11.9995 15.5375Z" fill="white"/>
<path d="M12 15.5376C11.59 15.5376 11.25 15.1976 11.25 14.7876V6.7876C11.25 6.3776 11.59 6.0376 12 6.0376C12.41 6.0376 12.75 6.3776 12.75 6.7876V14.7876C12.75 15.2076 12.41 15.5376 12 15.5376Z" fill="white"/>
<path d="M11.9995 18.5075C9.88946 18.5075 7.76946 18.1675 5.75946 17.4975C5.36946 17.3675 5.15946 16.9375 5.28946 16.5475C5.41946 16.1575 5.83945 15.9375 6.23945 16.0775C9.95945 17.3175 14.0495 17.3175 17.7695 16.0775C18.1595 15.9475 18.5895 16.1575 18.7195 16.5475C18.8495 16.9375 18.6395 17.3675 18.2495 17.4975C16.2295 18.1775 14.1095 18.5075 11.9995 18.5075Z" fill="white"/>
</svg>